# xmcd
#
# Track frame offsets: 
#        150
#        25838
#        46855
#        66887
#        89472
#        113435
#        134432
#        154588
#        172524
#        193545
#        220965
#        244738
#        269922
#        304595
#
# Disc length: 4409 seconds
#
# Revision: 1
# Processed by: cddbd v1.5.2PL0 Copyright (c) Steve Scherf et al.
# Submitted via: ExactAudioCopyFreeDBPlugin 1.0
#
DISCID=b811370e
DTITLE=Skyy - From The Left Side
DYEAR=1986
DGENRE=Soul
TTITLE0=Givin' It (To You)
TTITLE1=Love Attack
TTITLE2=Non-Stop
TTITLE3=Song Song
TTITLE4=Big Fun
TTITLE5=Love Illogical
TTITLE6=Tell Her You Care
TTITLE7=Jealousitis
TTITLE8=Rock It
TTITLE9=Givin' It (To You) (Special Mix)
TTITLE10=Love Illogical (Dance Edit)
TTITLE11=Non-Stop (Remix)
TTITLE12=Givin' It (To You) (Dub Version)
TTITLE13=Non-Stop (Dub Version)
EXTD=
EXTT0=
EXTT1=
EXTT2=
EXTT3=
EXTT4=
EXTT5=
EXTT6=
EXTT7=
EXTT8=
EXTT9=
EXTT10=
EXTT11=
EXTT12=
EXTT13=
PLAYORDER=
